{
    "asset": {
        "generator": "FBX2glTF v0.9.7",
        "version": "2.0"
    },
    "scene": 0,
    "buffers": [
        {
            "byteLength": 98892,
            "uri": "buffer.bin"
        }
    ],
    "bufferViews": [
        {
            "buffer": 0,
            "byteLength": 9612,
            "byteOffset": 0,
            "target": 34963
        },
        {
            "buffer": 0,
            "byteLength": 24564,
            "byteOffset": 9612,
            "target": 34962
        },
        {
            "buffer": 0,
            "byteLength": 24564,
            "byteOffset": 34176,
            "target": 34962
        },
        {
            "buffer": 0,
            "byteLength": 16376,
            "byteOffset": 58740,
            "target": 34962
        },
        {
            "buffer": 0,
            "byteLength": 96,
            "byteOffset": 75116,
            "target": 34963
        },
        {
            "buffer": 0,
            "byteLength": 264,
            "byteOffset": 75212,
            "target": 34962
        },
        {
            "buffer": 0,
            "byteLength": 264,
            "byteOffset": 75476,
            "target": 34962
        },
        {
            "buffer": 0,
            "byteLength": 176,
            "byteOffset": 75740,
            "target": 34962
        },
        {
            "buffer": 0,
            "byteLength": 1200,
            "byteOffset": 75916,
            "target": 34963
        },
        {
            "buffer": 0,
            "byteLength": 1704,
            "byteOffset": 77116,
            "target": 34962
        },
        {
            "buffer": 0,
            "byteLength": 1704,
            "byteOffset": 78820,
            "target": 34962
        },
        {
            "buffer": 0,
            "byteLength": 1136,
            "byteOffset": 80524,
            "target": 34962
        },
        {
            "buffer": 0,
            "byteLength": 1200,
            "byteOffset": 81660,
            "target": 34963
        },
        {
            "buffer": 0,
            "byteLength": 1704,
            "byteOffset": 82860,
            "target": 34962
        },
        {
            "buffer": 0,
            "byteLength": 1704,
            "byteOffset": 84564,
            "target": 34962
        },
        {
            "buffer": 0,
            "byteLength": 1136,
            "byteOffset": 86268,
            "target": 34962
        },
        {
            "buffer": 0,
            "byteLength": 1200,
            "byteOffset": 87404,
            "target": 34963
        },
        {
            "buffer": 0,
            "byteLength": 1704,
            "byteOffset": 88604,
            "target": 34962
        },
        {
            "buffer": 0,
            "byteLength": 1704,
            "byteOffset": 90308,
            "target": 34962
        },
        {
            "buffer": 0,
            "byteLength": 1136,
            "byteOffset": 92012,
            "target": 34962
        },
        {
            "buffer": 0,
            "byteLength": 1200,
            "byteOffset": 93148,
            "target": 34963
        },
        {
            "buffer": 0,
            "byteLength": 1704,
            "byteOffset": 94348,
            "target": 34962
        },
        {
            "buffer": 0,
            "byteLength": 1704,
            "byteOffset": 96052,
            "target": 34962
        },
        {
            "buffer": 0,
            "byteLength": 1136,
            "byteOffset": 97756,
            "target": 34962
        }
    ],
    "scenes": [
        {
            "name": "Root Scene",
            "nodes": [
                0
            ]
        }
    ],
    "accessors": [
        {
            "componentType": 5123,
            "type": "SCALAR",
            "count": 4806,
            "bufferView": 0,
            "byteOffset": 0
        },
        {
            "componentType": 5126,
            "type": "VEC3",
            "count": 2047,
            "bufferView": 1,
            "byteOffset": 0,
            "min": [
                -0.00482029793784022,
                -0.0097612738609314,
                0.00129604386165738
            ],
            "max": [
                0.00482029793784022,
                0.00976127479225397,
                0.00996813271194696
            ]
        },
        {
            "componentType": 5126,
            "type": "VEC3",
            "count": 2047,
            "bufferView": 2,
            "byteOffset": 0
        },
        {
            "componentType": 5126,
            "type": "VEC2",
            "count": 2047,
            "bufferView": 3,
            "byteOffset": 0
        },
        {
            "componentType": 5123,
            "type": "SCALAR",
            "count": 48,
            "bufferView": 4,
            "byteOffset": 0
        },
        {
            "componentType": 5126,
            "type": "VEC3",
            "count": 22,
            "bufferView": 5,
            "byteOffset": 0,
            "min": [
                -0.00384821649640799,
                -0.000321690429700539,
                -0.000220893911318853
            ],
            "max": [
                0.00385107356123626,
                0.000295864942017943,
                0.000220894216909073
            ]
        },
        {
            "componentType": 5126,
            "type": "VEC3",
            "count": 22,
            "bufferView": 6,
            "byteOffset": 0
        },
        {
            "componentType": 5126,
            "type": "VEC2",
            "count": 22,
            "bufferView": 7,
            "byteOffset": 0
        },
        {
            "componentType": 5123,
            "type": "SCALAR",
            "count": 600,
            "bufferView": 8,
            "byteOffset": 0
        },
        {
            "componentType": 5126,
            "type": "VEC3",
            "count": 142,
            "bufferView": 9,
            "byteOffset": 0,
            "min": [
                -0.000596195750404149,
                -0.00164228794164956,
                -0.00164228724315763
            ],
            "max": [
                0.000596195750404149,
                0.00164228794164956,
                0.00164228701032698
            ]
        },
        {
            "componentType": 5126,
            "type": "VEC3",
            "count": 142,
            "bufferView": 10,
            "byteOffset": 0
        },
        {
            "componentType": 5126,
            "type": "VEC2",
            "count": 142,
            "bufferView": 11,
            "byteOffset": 0
        },
        {
            "componentType": 5123,
            "type": "SCALAR",
            "count": 600,
            "bufferView": 12,
            "byteOffset": 0
        },
        {
            "componentType": 5126,
            "type": "VEC3",
            "count": 142,
            "bufferView": 13,
            "byteOffset": 0,
            "min": [
                -0.000596196041442454,
                -0.0016422881744802,
                -0.00164228724315763
            ],
            "max": [
                0.000596195459365845,
                0.00164228759240359,
                0.00164228701032698
            ]
        },
        {
            "componentType": 5126,
            "type": "VEC3",
            "count": 142,
            "bufferView": 14,
            "byteOffset": 0
        },
        {
            "componentType": 5126,
            "type": "VEC2",
            "count": 142,
            "bufferView": 15,
            "byteOffset": 0
        },
        {
            "componentType": 5123,
            "type": "SCALAR",
            "count": 600,
            "bufferView": 16,
            "byteOffset": 0
        },
        {
            "componentType": 5126,
            "type": "VEC3",
            "count": 142,
            "bufferView": 17,
            "byteOffset": 0,
            "min": [
                -0.000596195750404149,
                -0.0016422881744802,
                -0.00164228689391166
            ],
            "max": [
                0.000596195459365845,
                0.00164228759240359,
                0.00164228689391166
            ]
        },
        {
            "componentType": 5126,
            "type": "VEC3",
            "count": 142,
            "bufferView": 18,
            "byteOffset": 0
        },
        {
            "componentType": 5126,
            "type": "VEC2",
            "count": 142,
            "bufferView": 19,
            "byteOffset": 0
        },
        {
            "componentType": 5123,
            "type": "SCALAR",
            "count": 600,
            "bufferView": 20,
            "byteOffset": 0
        },
        {
            "componentType": 5126,
            "type": "VEC3",
            "count": 142,
            "bufferView": 21,
            "byteOffset": 0,
            "min": [
                -0.000596195750404149,
                -0.00164228852372617,
                -0.00164228689391166
            ],
            "max": [
                0.000596195459365845,
                0.00164228735957295,
                0.00164228689391166
            ]
        },
        {
            "componentType": 5126,
            "type": "VEC3",
            "count": 142,
            "bufferView": 22,
            "byteOffset": 0
        },
        {
            "componentType": 5126,
            "type": "VEC2",
            "count": 142,
            "bufferView": 23,
            "byteOffset": 0
        }
    ],
    "images": [
        {
            "name": "taxi03Orange.jpg",
            "uri": "taxi03Orange.jpg"
        }
    ],
    "samplers": [
        {}
    ],
    "textures": [
        {
            "name": "贴图 #7",
            "sampler": 0,
            "source": 0
        }
    ],
    "materials": [
        {
            "name": "Material #7",
            "alphaMode": "OPAQUE",
            "extras": {
                "fromFBX": {
                    "shadingModel": "Phong",
                    "isTruePBR": false
                }
            },
            "pbrMetallicRoughness": {
                "baseColorTexture": {
                    "index": 0,
                    "texCoord": 0
                },
                "baseColorFactor": [
                    1.0,
                    1.0,
                    1.0,
                    1.0
                ],
                "metallicFactor": 0.400000005960464,
                "roughnessFactor": 0.70710676908493
            }
        }
    ],
    "meshes": [
        {
            "name": "taxi03",
            "primitives": [
                {
                    "material": 0,
                    "mode": 4,
                    "attributes": {
                        "NORMAL": 2,
                        "POSITION": 1,
                        "TEXCOORD_0": 3
                    },
                    "indices": 0
                }
            ]
        },
        {
            "name": "light1",
            "primitives": [
                {
                    "material": 0,
                    "mode": 4,
                    "attributes": {
                        "NORMAL": 6,
                        "POSITION": 5,
                        "TEXCOORD_0": 7
                    },
                    "indices": 4
                }
            ]
        },
        {
            "name": "tyre1",
            "primitives": [
                {
                    "material": 0,
                    "mode": 4,
                    "attributes": {
                        "NORMAL": 10,
                        "POSITION": 9,
                        "TEXCOORD_0": 11
                    },
                    "indices": 8
                }
            ]
        },
        {
            "name": "tyre2",
            "primitives": [
                {
                    "material": 0,
                    "mode": 4,
                    "attributes": {
                        "NORMAL": 14,
                        "POSITION": 13,
                        "TEXCOORD_0": 15
                    },
                    "indices": 12
                }
            ]
        },
        {
            "name": "tyre3",
            "primitives": [
                {
                    "material": 0,
                    "mode": 4,
                    "attributes": {
                        "NORMAL": 18,
                        "POSITION": 17,
                        "TEXCOORD_0": 19
                    },
                    "indices": 16
                }
            ]
        },
        {
            "name": "tyre4",
            "primitives": [
                {
                    "material": 0,
                    "mode": 4,
                    "attributes": {
                        "NORMAL": 22,
                        "POSITION": 21,
                        "TEXCOORD_0": 23
                    },
                    "indices": 20
                }
            ]
        }
    ],
    "nodes": [
        {
            "name": "RootNode",
            "translation": [
                0.0,
                0.0,
                0.0
            ],
            "rotation": [
                0.0,
                0.0,
                0.0,
                1.0
            ],
            "scale": [
                1.0,
                1.0,
                1.0
            ],
            "children": [
                1,
                2,
                3,
                4,
                5,
                6
            ]
        },
        {
            "name": "taxi03",
            "translation": [
                0.00360610894858837,
                0.0,
                -0.0132893798872828
            ],
            "rotation": [
                5.33850759154575e-08,
                0.70710676908493,
                0.70710676908493,
                -5.33850759154575e-08
            ],
            "scale": [
                24.3339576721191,
                21.1761093139648,
                21.1761093139648
            ],
            "mesh": 0
        },
        {
            "name": "light1",
            "translation": [
                0.00360613944940269,
                0.0750873386859894,
                0.185635909438133
            ],
            "rotation": [
                5.33850759154575e-08,
                0.70710676908493,
                0.70710676908493,
                -5.33850759154575e-08
            ],
            "scale": [
                24.3339576721191,
                21.1761093139648,
                21.1761093139648
            ],
            "mesh": 1
        },
        {
            "name": "tyre1",
            "translation": [
                -0.0846979096531868,
                0.038340512663126,
                0.084744468331337
            ],
            "rotation": [
                5.33850759154575e-08,
                0.70710676908493,
                0.70710676908493,
                -5.33850759154575e-08
            ],
            "scale": [
                24.3339576721191,
                21.1761093139648,
                21.1761093139648
            ],
            "mesh": 2
        },
        {
            "name": "tyre2",
            "translation": [
                0.0919101536273956,
                0.038340512663126,
                0.0847444534301758
            ],
            "rotation": [
                5.33850759154575e-08,
                0.70710676908493,
                0.70710676908493,
                -5.33850759154575e-08
            ],
            "scale": [
                24.3339576721191,
                21.1761093139648,
                21.1761093139648
            ],
            "mesh": 3
        },
        {
            "name": "tyre3",
            "translation": [
                -0.0846979692578316,
                0.0383405163884163,
                -0.107895903289318
            ],
            "rotation": [
                5.33850759154575e-08,
                0.70710676908493,
                0.70710676908493,
                -5.33850759154575e-08
            ],
            "scale": [
                24.3339576721191,
                21.1761093139648,
                21.1761093139648
            ],
            "mesh": 4
        },
        {
            "name": "tyre4",
            "translation": [
                0.0919101536273956,
                0.0383405163884163,
                -0.10789592564106
            ],
            "rotation": [
                5.33850759154575e-08,
                0.70710676908493,
                0.70710676908493,
                -5.33850759154575e-08
            ],
            "scale": [
                24.3339576721191,
                21.1761093139648,
                21.1761093139648
            ],
            "mesh": 5
        }
    ]
}