{
    "asset": {
        "generator": "FBX2glTF v0.9.7",
        "version": "2.0"
    },
    "scene": 0,
    "buffers": [
        {
            "byteLength": 145344,
            "uri": "buffer.bin"
        }
    ],
    "bufferViews": [
        {
            "buffer": 0,
            "byteLength": 10782,
            "byteOffset": 0,
            "target": 34963
        },
        {
            "buffer": 0,
            "byteLength": 43500,
            "byteOffset": 10784,
            "target": 34962
        },
        {
            "buffer": 0,
            "byteLength": 43500,
            "byteOffset": 54284,
            "target": 34962
        },
        {
            "buffer": 0,
            "byteLength": 29000,
            "byteOffset": 97784,
            "target": 34962
        },
        {
            "buffer": 0,
            "byteLength": 240,
            "byteOffset": 126784,
            "target": 34963
        },
        {
            "buffer": 0,
            "byteLength": 1440,
            "byteOffset": 127024,
            "target": 34962
        },
        {
            "buffer": 0,
            "byteLength": 1440,
            "byteOffset": 128464,
            "target": 34962
        },
        {
            "buffer": 0,
            "byteLength": 960,
            "byteOffset": 129904,
            "target": 34962
        },
        {
            "buffer": 0,
            "byteLength": 240,
            "byteOffset": 130864,
            "target": 34963
        },
        {
            "buffer": 0,
            "byteLength": 1440,
            "byteOffset": 131104,
            "target": 34962
        },
        {
            "buffer": 0,
            "byteLength": 1440,
            "byteOffset": 132544,
            "target": 34962
        },
        {
            "buffer": 0,
            "byteLength": 960,
            "byteOffset": 133984,
            "target": 34962
        },
        {
            "buffer": 0,
            "byteLength": 240,
            "byteOffset": 134944,
            "target": 34963
        },
        {
            "buffer": 0,
            "byteLength": 1440,
            "byteOffset": 135184,
            "target": 34962
        },
        {
            "buffer": 0,
            "byteLength": 1440,
            "byteOffset": 136624,
            "target": 34962
        },
        {
            "buffer": 0,
            "byteLength": 960,
            "byteOffset": 138064,
            "target": 34962
        },
        {
            "buffer": 0,
            "byteLength": 240,
            "byteOffset": 139024,
            "target": 34963
        },
        {
            "buffer": 0,
            "byteLength": 1440,
            "byteOffset": 139264,
            "target": 34962
        },
        {
            "buffer": 0,
            "byteLength": 1440,
            "byteOffset": 140704,
            "target": 34962
        },
        {
            "buffer": 0,
            "byteLength": 960,
            "byteOffset": 142144,
            "target": 34962
        },
        {
            "buffer": 0,
            "byteLength": 192,
            "byteOffset": 143104,
            "target": 34963
        },
        {
            "buffer": 0,
            "byteLength": 768,
            "byteOffset": 143296,
            "target": 34962
        },
        {
            "buffer": 0,
            "byteLength": 768,
            "byteOffset": 144064,
            "target": 34962
        },
        {
            "buffer": 0,
            "byteLength": 512,
            "byteOffset": 144832,
            "target": 34962
        }
    ],
    "scenes": [
        {
            "name": "Root Scene",
            "nodes": [
                0
            ]
        }
    ],
    "accessors": [
        {
            "componentType": 5123,
            "type": "SCALAR",
            "count": 5391,
            "bufferView": 0,
            "byteOffset": 0
        },
        {
            "componentType": 5126,
            "type": "VEC3",
            "count": 3625,
            "bufferView": 1,
            "byteOffset": 0,
            "min": [
                -0.0492656789720058,
                -0.0884276479482651,
                0.0124603575095534
            ],
            "max": [
                0.0470513254404068,
                0.0894032046198845,
                0.0837367027997971
            ]
        },
        {
            "componentType": 5126,
            "type": "VEC3",
            "count": 3625,
            "bufferView": 2,
            "byteOffset": 0
        },
        {
            "componentType": 5126,
            "type": "VEC2",
            "count": 3625,
            "bufferView": 3,
            "byteOffset": 0
        },
        {
            "componentType": 5123,
            "type": "SCALAR",
            "count": 120,
            "bufferView": 4,
            "byteOffset": 0
        },
        {
            "componentType": 5126,
            "type": "VEC3",
            "count": 120,
            "bufferView": 5,
            "byteOffset": 0,
            "min": [
                -0.00728471064940095,
                -0.0135663915425539,
                -0.0130294309929013
            ],
            "max": [
                0.00724530033767223,
                0.0135663831606507,
                0.014388064853847
            ]
        },
        {
            "componentType": 5126,
            "type": "VEC3",
            "count": 120,
            "bufferView": 6,
            "byteOffset": 0
        },
        {
            "componentType": 5126,
            "type": "VEC2",
            "count": 120,
            "bufferView": 7,
            "byteOffset": 0
        },
        {
            "componentType": 5123,
            "type": "SCALAR",
            "count": 120,
            "bufferView": 8,
            "byteOffset": 0
        },
        {
            "componentType": 5126,
            "type": "VEC3",
            "count": 120,
            "bufferView": 9,
            "byteOffset": 0,
            "min": [
                -0.00509336497634649,
                -0.0135664092376828,
                -0.0129982586950064
            ],
            "max": [
                0.00941041763871908,
                0.0135663542896509,
                0.0144192427396774
            ]
        },
        {
            "componentType": 5126,
            "type": "VEC3",
            "count": 120,
            "bufferView": 10,
            "byteOffset": 0
        },
        {
            "componentType": 5126,
            "type": "VEC2",
            "count": 120,
            "bufferView": 11,
            "byteOffset": 0
        },
        {
            "componentType": 5123,
            "type": "SCALAR",
            "count": 120,
            "bufferView": 12,
            "byteOffset": 0
        },
        {
            "componentType": 5126,
            "type": "VEC3",
            "count": 120,
            "bufferView": 13,
            "byteOffset": 0,
            "min": [
                -0.007284767460078,
                -0.0135663980618119,
                -0.0130294132977724
            ],
            "max": [
                0.0072453604079783,
                0.013566367328167,
                0.0143880946561694
            ]
        },
        {
            "componentType": 5126,
            "type": "VEC3",
            "count": 120,
            "bufferView": 14,
            "byteOffset": 0
        },
        {
            "componentType": 5126,
            "type": "VEC2",
            "count": 120,
            "bufferView": 15,
            "byteOffset": 0
        },
        {
            "componentType": 5123,
            "type": "SCALAR",
            "count": 120,
            "bufferView": 16,
            "byteOffset": 0
        },
        {
            "componentType": 5126,
            "type": "VEC3",
            "count": 120,
            "bufferView": 17,
            "byteOffset": 0,
            "min": [
                -0.00509337522089481,
                -0.0135663971304893,
                -0.0129983061924577
            ],
            "max": [
                0.00941048376262188,
                0.0135663561522961,
                0.014419193379581
            ]
        },
        {
            "componentType": 5126,
            "type": "VEC3",
            "count": 120,
            "bufferView": 18,
            "byteOffset": 0
        },
        {
            "componentType": 5126,
            "type": "VEC2",
            "count": 120,
            "bufferView": 19,
            "byteOffset": 0
        },
        {
            "componentType": 5123,
            "type": "SCALAR",
            "count": 96,
            "bufferView": 20,
            "byteOffset": 0
        },
        {
            "componentType": 5126,
            "type": "VEC3",
            "count": 64,
            "bufferView": 21,
            "byteOffset": 0,
            "min": [
                -0.0445899814367294,
                -0.00696089211851358,
                -0.00496027618646622
            ],
            "max": [
                0.0445797517895699,
                0.00696961395442486,
                0.00495351757854223
            ]
        },
        {
            "componentType": 5126,
            "type": "VEC3",
            "count": 64,
            "bufferView": 22,
            "byteOffset": 0
        },
        {
            "componentType": 5126,
            "type": "VEC2",
            "count": 64,
            "bufferView": 23,
            "byteOffset": 0
        }
    ],
    "images": [
        {
            "name": "taxi01.jpg",
            "uri": "taxi01.jpg"
        }
    ],
    "samplers": [
        {}
    ],
    "textures": [
        {
            "name": "贴图 #13",
            "sampler": 0,
            "source": 0
        }
    ],
    "materials": [
        {
            "name": "Material #13",
            "alphaMode": "OPAQUE",
            "extras": {
                "fromFBX": {
                    "shadingModel": "Phong",
                    "isTruePBR": false
                }
            },
            "pbrMetallicRoughness": {
                "baseColorTexture": {
                    "index": 0,
                    "texCoord": 0
                },
                "baseColorFactor": [
                    1.0,
                    1.0,
                    1.0,
                    1.0
                ],
                "metallicFactor": 0.400000005960464,
                "roughnessFactor": 0.70710676908493
            }
        }
    ],
    "meshes": [
        {
            "name": "chuzu02",
            "primitives": [
                {
                    "material": 0,
                    "mode": 4,
                    "attributes": {
                        "NORMAL": 2,
                        "POSITION": 1,
                        "TEXCOORD_0": 3
                    },
                    "indices": 0
                }
            ]
        },
        {
            "name": "tyre4",
            "primitives": [
                {
                    "material": 0,
                    "mode": 4,
                    "attributes": {
                        "NORMAL": 6,
                        "POSITION": 5,
                        "TEXCOORD_0": 7
                    },
                    "indices": 4
                }
            ]
        },
        {
            "name": "tyre1",
            "primitives": [
                {
                    "material": 0,
                    "mode": 4,
                    "attributes": {
                        "NORMAL": 10,
                        "POSITION": 9,
                        "TEXCOORD_0": 11
                    },
                    "indices": 8
                }
            ]
        },
        {
            "name": "tyre2",
            "primitives": [
                {
                    "material": 0,
                    "mode": 4,
                    "attributes": {
                        "NORMAL": 14,
                        "POSITION": 13,
                        "TEXCOORD_0": 15
                    },
                    "indices": 12
                }
            ]
        },
        {
            "name": "tyre3",
            "primitives": [
                {
                    "material": 0,
                    "mode": 4,
                    "attributes": {
                        "NORMAL": 18,
                        "POSITION": 17,
                        "TEXCOORD_0": 19
                    },
                    "indices": 16
                }
            ]
        },
        {
            "name": "light1",
            "primitives": [
                {
                    "material": 0,
                    "mode": 4,
                    "attributes": {
                        "NORMAL": 22,
                        "POSITION": 21,
                        "TEXCOORD_0": 23
                    },
                    "indices": 20
                }
            ]
        }
    ],
    "nodes": [
        {
            "name": "RootNode",
            "translation": [
                0.0,
                0.0,
                0.0
            ],
            "rotation": [
                0.0,
                0.0,
                0.0,
                1.0
            ],
            "scale": [
                1.0,
                1.0,
                1.0
            ],
            "children": [
                1,
                2,
                3,
                4,
                5,
                6
            ]
        },
        {
            "name": "chuzu02",
            "translation": [
                0.0,
                0.0,
                0.0
            ],
            "rotation": [
                0.700909078121185,
                -6.12754220696843e-08,
                -6.23543527922266e-08,
                0.713250637054443
            ],
            "scale": [
                -2.4560809135437,
                -2.4560809135437,
                -2.38775992393494
            ],
            "mesh": 0
        },
        {
            "name": "tyre4",
            "translation": [
                0.0984251946210861,
                0.0352561734616756,
                -0.133085176348686
            ],
            "rotation": [
                0.707106649875641,
                6.18172393274108e-08,
                1.20362602534525e-14,
                0.707106947898865
            ],
            "scale": [
                -2.4560809135437,
                -2.4560809135437,
                -2.38775992393494
            ],
            "mesh": 1
        },
        {
            "name": "tyre1",
            "translation": [
                -0.0905511826276779,
                0.0352561846375465,
                0.114801868796349
            ],
            "rotation": [
                0.707106530666351,
                6.18172393274108e-08,
                1.94054485886308e-14,
                0.70710700750351
            ],
            "scale": [
                -2.4560809135437,
                -2.4560809135437,
                -2.38775992393494
            ],
            "mesh": 2
        },
        {
            "name": "tyre2",
            "translation": [
                0.0984251946210861,
                0.0352561622858047,
                0.114801824092865
            ],
            "rotation": [
                0.707106530666351,
                6.18172393274108e-08,
                1.94054485886308e-14,
                0.70710700750351
            ],
            "scale": [
                -2.4560809135437,
                -2.4560809135437,
                -2.38775992393494
            ],
            "mesh": 3
        },
        {
            "name": "tyre3",
            "translation": [
                -0.0905511826276779,
                0.0352561883628368,
                -0.133085131645203
            ],
            "rotation": [
                0.707106530666351,
                6.18172393274108e-08,
                1.94054485886308e-14,
                0.70710700750351
            ],
            "scale": [
                -2.4560809135437,
                -2.4560809135437,
                -2.38775992393494
            ],
            "mesh": 4
        },
        {
            "name": "light1",
            "translation": [
                0.00254714954644442,
                0.0895572230219841,
                0.196860656142235
            ],
            "rotation": [
                0.700909078121185,
                -6.12754220696843e-08,
                -6.23543527922266e-08,
                0.713250637054443
            ],
            "scale": [
                -2.4560809135437,
                -2.4560809135437,
                -2.38775992393494
            ],
            "mesh": 5
        }
    ]
}