{
    "asset": {
        "generator": "FBX2glTF v0.9.7",
        "version": "2.0"
    },
    "scene": 0,
    "buffers": [
        {
            "byteLength": 56392,
            "uri": "buffer.bin"
        }
    ],
    "bufferViews": [
        {
            "buffer": 0,
            "byteLength": 5016,
            "byteOffset": 0,
            "target": 34963
        },
        {
            "buffer": 0,
            "byteLength": 7524,
            "byteOffset": 5016,
            "target": 34962
        },
        {
            "buffer": 0,
            "byteLength": 7524,
            "byteOffset": 12540,
            "target": 34962
        },
        {
            "buffer": 0,
            "byteLength": 10032,
            "byteOffset": 20064,
            "target": 34962
        },
        {
            "buffer": 0,
            "byteLength": 5016,
            "byteOffset": 30096,
            "target": 34962
        },
        {
            "buffer": 0,
            "byteLength": 5016,
            "byteOffset": 35112,
            "target": 34962
        },
        {
            "buffer": 0,
            "byteLength": 5016,
            "byteOffset": 40128,
            "target": 34962
        },
        {
            "buffer": 0,
            "byteLength": 10032,
            "byteOffset": 45144,
            "target": 34962
        },
        {
            "buffer": 0,
            "byteLength": 1216,
            "byteOffset": 55176
        }
    ],
    "scenes": [
        {
            "name": "Root Scene",
            "nodes": [
                0
            ]
        }
    ],
    "accessors": [
        {
            "componentType": 5123,
            "type": "SCALAR",
            "count": 2508,
            "bufferView": 0,
            "byteOffset": 0
        },
        {
            "componentType": 5126,
            "type": "VEC3",
            "count": 627,
            "bufferView": 1,
            "byteOffset": 0,
            "min": [
                -6.72042332894307e-08,
                -0.0029807707760483,
                -0.0020404951646924
            ],
            "max": [
                0.00982602778822184,
                0.00298077007755637,
                0.00204049306921661
            ]
        },
        {
            "componentType": 5126,
            "type": "VEC3",
            "count": 627,
            "bufferView": 2,
            "byteOffset": 0
        },
        {
            "componentType": 5126,
            "type": "VEC4",
            "count": 627,
            "bufferView": 3,
            "byteOffset": 0
        },
        {
            "componentType": 5126,
            "type": "VEC2",
            "count": 627,
            "bufferView": 4,
            "byteOffset": 0
        },
        {
            "componentType": 5126,
            "type": "VEC2",
            "count": 627,
            "bufferView": 5,
            "byteOffset": 0
        },
        {
            "componentType": 5123,
            "type": "VEC4",
            "count": 627,
            "bufferView": 6,
            "byteOffset": 0
        },
        {
            "componentType": 5126,
            "type": "VEC4",
            "count": 627,
            "bufferView": 7,
            "byteOffset": 0
        },
        {
            "componentType": 5126,
            "type": "MAT4",
            "count": 19,
            "bufferView": 8,
            "byteOffset": 0
        }
    ],
    "images": [
        {
            "name": "man01.jpg",
            "uri": "man01.jpg"
        }
    ],
    "samplers": [
        {}
    ],
    "textures": [
        {
            "name": "man01",
            "sampler": 0,
            "source": 0
        }
    ],
    "materials": [
        {
            "name": "man01",
            "alphaMode": "OPAQUE",
            "extras": {
                "fromFBX": {
                    "shadingModel": "Phong",
                    "isTruePBR": false
                }
            },
            "pbrMetallicRoughness": {
                "baseColorTexture": {
                    "index": 0,
                    "texCoord": 0
                },
                "baseColorFactor": [
                    1.0,
                    1.0,
                    1.0,
                    1.0
                ],
                "metallicFactor": 0.400000005960464,
                "roughnessFactor": 0.70710676908493
            }
        }
    ],
    "meshes": [
        {
            "name": "muchangguanliyuan_01",
            "primitives": [
                {
                    "material": 0,
                    "mode": 4,
                    "attributes": {
                        "COLOR_0": 3,
                        "JOINTS_0": 6,
                        "NORMAL": 2,
                        "POSITION": 1,
                        "TEXCOORD_0": 4,
                        "TEXCOORD_1": 5,
                        "WEIGHTS_0": 7
                    },
                    "indices": 0
                }
            ]
        }
    ],
    "skins": [
        {
            "joints": [
                17,
                16,
                24,
                25,
                23,
                26,
                5,
                4,
                19,
                2,
                11,
                12,
                6,
                13,
                20,
                7,
                8,
                21,
                22
            ],
            "inverseBindMatrices": 8,
            "skeleton": 2
        }
    ],
    "nodes": [
        {
            "name": "RootNode",
            "translation": [
                0.0,
                0.0,
                0.0
            ],
            "rotation": [
                0.0,
                0.0,
                0.0,
                1.0
            ],
            "scale": [
                1.0,
                1.0,
                1.0
            ],
            "children": [
                1,
                2
            ]
        },
        {
            "name": "muchangguanliyuan_01",
            "translation": [
                0.0,
                0.0,
                0.0
            ],
            "rotation": [
                0.707106828689575,
                0.707106709480286,
                1.54543080554959e-08,
                1.54543116082095e-08
            ],
            "scale": [
                40.9290504455566,
                40.9290504455566,
                40.9290504455566
            ],
            "mesh": 0,
            "skin": 0
        },
        {
            "name": "Bip001",
            "translation": [
                -0.000454521155916154,
                0.126305505633354,
                -0.00835517048835754
            ],
            "rotation": [
                -0.500000357627869,
                -0.499999642372131,
                -0.499999642372131,
                0.500000357627869
            ],
            "scale": [
                1.00000059604645,
                1.00000059604645,
                1.00000059604645
            ],
            "children": [
                3,
                4
            ]
        },
        {
            "name": "Bip001 Footsteps",
            "translation": [
                0.0,
                0.0,
                -0.11020639538765
            ],
            "rotation": [
                2.71935795813656e-33,
                1.47121787276247e-32,
                0.707106292247772,
                0.707107245922089
            ],
            "scale": [
                1.0,
                1.0,
                1.0
            ]
        },
        {
            "name": "Bip001 Pelvis",
            "translation": [
                0.0,
                0.0,
                0.0
            ],
            "rotation": [
                -0.5,
                -0.5,
                -0.499999314546585,
                0.500000715255737
            ],
            "scale": [
                1.0,
                1.0,
                1.0
            ],
            "children": [
                5
            ]
        },
        {
            "name": "Bip001 Spine",
            "translation": [
                0.0238645933568478,
                -5.33503298356663e-05,
                3.31178284795897e-08
            ],
            "rotation": [
                -2.05109586204344e-06,
                -7.00347015936131e-07,
                -0.0564826391637325,
                0.998403608798981
            ],
            "scale": [
                1.0,
                1.0,
                1.0
            ],
            "children": [
                6,
                11,
                16
            ]
        },
        {
            "name": "Bip001 L Thigh",
            "translation": [
                -0.0237183477729559,
                -0.00263860821723938,
                0.0198355261236429
            ],
            "rotation": [
                -0.375615864992142,
                0.925841748714447,
                -0.0172285251319408,
                -0.0378548055887222
            ],
            "scale": [
                1.0,
                1.0,
                1.0
            ],
            "children": [
                7
            ]
        },
        {
            "name": "Bip001 L Calf",
            "translation": [
                0.0628001317381859,
                0.0,
                -2.38418573772492e-09
            ],
            "rotation": [
                -5.33477306774444e-09,
                1.66289515490803e-09,
                -0.297586679458618,
                0.954694807529449
            ],
            "scale": [
                1.0,
                1.0,
                1.0
            ],
            "children": [
                8
            ]
        },
        {
            "name": "Bip001 L Foot",
            "translation": [
                0.0523844659328461,
                9.53674295089968e-09,
                -4.44089199923895e-18
            ],
            "rotation": [
                0.0211577974259853,
                -0.035807441920042,
                0.02889559045434,
                0.998716771602631
            ],
            "scale": [
                1.0,
                1.0,
                1.0
            ],
            "children": [
                9
            ]
        },
        {
            "name": "Bip001 L Toe0",
            "translation": [
                0.0185116995126009,
                0.0223347563296556,
                -4.76837147544984e-09
            ],
            "rotation": [
                -1.54542636465749e-08,
                -1.54544199659767e-08,
                0.707106828689575,
                0.70710676908493
            ],
            "scale": [
                1.0,
                1.0,
                1.0
            ],
            "children": [
                10
            ]
        },
        {
            "name": "Bip001 L Toe0Nub",
            "translation": [
                0.00241456972435117,
                9.53674295089968e-09,
                0.0
            ],
            "rotation": [
                -1.06581418834345e-14,
                -1.77635683940025e-14,
                1.0,
                4.4703483581543e-08
            ],
            "scale": [
                -1.0,
                -1.0,
                -1.0
            ]
        },
        {
            "name": "Bip001 R Thigh",
            "translation": [
                -0.0237183477729559,
                -0.00263849482871592,
                -0.0198355372995138
            ],
            "rotation": [
                0.27701935172081,
                0.960607707500458,
                -0.00735907536000013,
                0.0209520179778337
            ],
            "scale": [
                1.0,
                1.0,
                1.0
            ],
            "children": [
                12
            ]
        },
        {
            "name": "Bip001 R Calf",
            "translation": [
                0.0628001093864441,
                9.53674295089968e-09,
                0.0
            ],
            "rotation": [
                -1.04727548855266e-09,
                -1.800006144137e-09,
                -0.0632529854774475,
                0.997997522354126
            ],
            "scale": [
                1.0,
                1.0,
                1.0
            ],
            "children": [
                13
            ]
        },
        {
            "name": "Bip001 R Foot",
            "translation": [
                0.0523844957351685,
                -9.53674295089968e-09,
                4.44089199923895e-18
            ],
            "rotation": [
                -0.00355846341699362,
                0.0219203401356936,
                0.0227192137390375,
                0.999495208263397
            ],
            "scale": [
                1.0,
                1.0,
                1.0
            ],
            "children": [
                14
            ]
        },
        {
            "name": "Bip001 R Toe0",
            "translation": [
                0.0185116939246655,
                0.0223347563296556,
                -7.15255721317476e-09
            ],
            "rotation": [
                -1.54542103558697e-08,
                -1.54543720043421e-08,
                0.707106828689575,
                0.70710676908493
            ],
            "scale": [
                1.0,
                1.0,
                1.0
            ],
            "children": [
                15
            ]
        },
        {
            "name": "Bip001 R Toe0Nub",
            "translation": [
                0.00241456017829478,
                2.38418573772492e-09,
                2.38418573772492e-09
            ],
            "rotation": [
                5.68434324133352e-14,
                -5.68434324133352e-14,
                1.49011647465613e-08,
                1.0
            ],
            "scale": [
                1.0,
                1.0,
                1.0
            ]
        },
        {
            "name": "Bip001 Neck",
            "translation": [
                0.0674523040652275,
                -1.38056275318377e-05,
                3.72529021519519e-11
            ],
            "rotation": [
                1.57009090173688e-08,
                -7.12548171577509e-07,
                0.248487085103989,
                0.968635201454163
            ],
            "scale": [
                1.0,
                1.0,
                1.0
            ],
            "children": [
                17,
                19,
                23
            ]
        },
        {
            "name": "Bip001 Head",
            "translation": [
                0.0197722613811493,
                -9.53674295089968e-09,
                -7.45058043039037e-11
            ],
            "rotation": [
                1.27778871927831e-08,
                3.75155167375851e-07,
                -0.124469183385372,
                0.992223501205444
            ],
            "scale": [
                1.0,
                1.0,
                1.0
            ],
            "children": [
                18
            ]
        },
        {
            "name": "Bip001 HeadNub",
            "translation": [
                0.144661784172058,
                0.0,
                -7.45058043039037e-11
            ],
            "rotation": [
                8.52651147386849e-14,
                -1.45583787809333e-22,
                -1.38777878078145e-17,
                1.0
            ],
            "scale": [
                1.0,
                1.0,
                1.0
            ]
        },
        {
            "name": "Bip001 L Clavicle",
            "translation": [
                -3.81469718035987e-08,
                1.57260892592603e-05,
                0.00611829664558172
            ],
            "rotation": [
                0.622563302516937,
                -0.15997339785099,
                0.741941571235657,
                0.190646812319756
            ],
            "scale": [
                1.0,
                1.0,
                1.0
            ],
            "children": [
                20
            ]
        },
        {
            "name": "Bip001 L UpperArm",
            "translation": [
                0.0281012877821922,
                -2.38418573772492e-09,
                1.90734859017994e-08
            ],
            "rotation": [
                -0.16188670694828,
                0.496298164129257,
                -0.096649631857872,
                0.847431242465973
            ],
            "scale": [
                1.0,
                1.0,
                1.0
            ],
            "children": [
                21
            ]
        },
        {
            "name": "Bip001 L Forearm",
            "translation": [
                0.0665261894464493,
                1.90734859017994e-08,
                3.55271359939116e-17
            ],
            "rotation": [
                6.8014331944255e-09,
                -2.28632881515978e-08,
                -0.376110583543777,
                0.926574766635895
            ],
            "scale": [
                1.0,
                1.0,
                1.0
            ],
            "children": [
                22
            ]
        },
        {
            "name": "Bip001 L Hand",
            "translation": [
                0.0509902164340019,
                -9.53674295089968e-09,
                0.0
            ],
            "rotation": [
                -0.706825196743011,
                -2.89707084988322e-08,
                1.3182424041247e-08,
                0.707388281822205
            ],
            "scale": [
                1.0,
                1.0,
                1.0
            ]
        },
        {
            "name": "Bip001 R Clavicle",
            "translation": [
                0.0,
                1.57547001435887e-05,
                -0.00611829943954945
            ],
            "rotation": [
                -0.614990293979645,
                0.158025503158569,
                0.748230755329132,
                0.192264378070831
            ],
            "scale": [
                1.0,
                1.0,
                1.0
            ],
            "children": [
                24
            ]
        },
        {
            "name": "Bip001 R UpperArm",
            "translation": [
                0.0281012915074825,
                -1.19209286886246e-09,
                -1.90734859017994e-08
            ],
            "rotation": [
                -0.373049229383469,
                -0.42947855591774,
                0.316786348819733,
                0.758965671062469
            ],
            "scale": [
                1.0,
                1.0,
                1.0
            ],
            "children": [
                25
            ]
        },
        {
            "name": "Bip001 R Forearm",
            "translation": [
                0.0665261894464493,
                -5.72204577053981e-08,
                -8.88178399847791e-18
            ],
            "rotation": [
                1.05833573016412e-08,
                1.28665575971354e-08,
                -0.222805574536324,
                0.97486287355423
            ],
            "scale": [
                1.0,
                1.0,
                1.0
            ],
            "children": [
                26
            ]
        },
        {
            "name": "Bip001 R Hand",
            "translation": [
                0.0509902276098728,
                1.90734859017994e-08,
                1.90734859017994e-08
            ],
            "rotation": [
                0.706825196743011,
                1.58029678232197e-08,
                5.27464738553363e-09,
                0.70738822221756
            ],
            "scale": [
                1.0,
                1.0,
                1.0
            ]
        }
    ]
}