{
    "asset": {
        "generator": "FBX2glTF v0.9.7",
        "version": "2.0"
    },
    "scene": 0,
    "buffers": [
        {
            "byteLength": 106988,
            "uri": "buffer.bin"
        }
    ],
    "bufferViews": [
        {
            "buffer": 0,
            "byteLength": 14412,
            "byteOffset": 0,
            "target": 34963
        },
        {
            "buffer": 0,
            "byteLength": 34716,
            "byteOffset": 14412,
            "target": 34962
        },
        {
            "buffer": 0,
            "byteLength": 34716,
            "byteOffset": 49128,
            "target": 34962
        },
        {
            "buffer": 0,
            "byteLength": 23144,
            "byteOffset": 83844,
            "target": 34962
        }
    ],
    "scenes": [
        {
            "name": "Root Scene",
            "nodes": [
                0
            ]
        }
    ],
    "accessors": [
        {
            "componentType": 5123,
            "type": "SCALAR",
            "count": 7206,
            "bufferView": 0,
            "byteOffset": 0
        },
        {
            "componentType": 5126,
            "type": "VEC3",
            "count": 2893,
            "bufferView": 1,
            "byteOffset": 0,
            "min": [
                -0.00480774184688926,
                -0.00906519498676062,
                -9.35020398173947e-06
            ],
            "max": [
                0.00480774184688926,
                0.00921355094760656,
                0.01022884901613
            ]
        },
        {
            "componentType": 5126,
            "type": "VEC3",
            "count": 2893,
            "bufferView": 2,
            "byteOffset": 0
        },
        {
            "componentType": 5126,
            "type": "VEC2",
            "count": 2893,
            "bufferView": 3,
            "byteOffset": 0
        }
    ],
    "images": [
        {
            "name": "truck02Blue.jpg",
            "uri": "truck02Blue.jpg"
        }
    ],
    "samplers": [
        {}
    ],
    "textures": [
        {
            "name": "truck02Blue",
            "sampler": 0,
            "source": 0
        }
    ],
    "materials": [
        {
            "name": "truck02Blue",
            "alphaMode": "OPAQUE",
            "extras": {
                "fromFBX": {
                    "shadingModel": "Phong",
                    "isTruePBR": false
                }
            },
            "pbrMetallicRoughness": {
                "baseColorTexture": {
                    "index": 0,
                    "texCoord": 0
                },
                "baseColorFactor": [
                    1.0,
                    1.0,
                    1.0,
                    1.0
                ],
                "metallicFactor": 0.400000005960464,
                "roughnessFactor": 0.70710676908493
            }
        }
    ],
    "meshes": [
        {
            "name": "car_005_0",
            "primitives": [
                {
                    "material": 0,
                    "mode": 4,
                    "attributes": {
                        "NORMAL": 2,
                        "POSITION": 1,
                        "TEXCOORD_0": 3
                    },
                    "indices": 0
                }
            ]
        }
    ],
    "nodes": [
        {
            "name": "RootNode",
            "translation": [
                0.0,
                0.0,
                0.0
            ],
            "rotation": [
                0.0,
                0.0,
                0.0,
                1.0
            ],
            "scale": [
                1.0,
                1.0,
                1.0
            ],
            "children": [
                1
            ]
        },
        {
            "name": "car_005_0",
            "translation": [
                0.0,
                0.0,
                0.0
            ],
            "rotation": [
                3.09086196637054e-08,
                0.70710676908493,
                0.70710676908493,
                -3.09086196637054e-08
            ],
            "scale": [
                74.0360336303711,
                74.0360336303711,
                74.0360336303711
            ],
            "mesh": 0
        }
    ]
}